<svg xmlns="http://www.w3.org/2000/svg" version="1.1" xmlns:xlink="http://www.w3.org/1999/xlink" xmlns:svgjs="http://svgjs.dev/svgjs" width="1440" height="560" preserveAspectRatio="none" viewBox="0 0 1440 560"><g mask="url(&quot;#SvgjsMask1004&quot;)" fill="none"><rect width="1440" height="560" x="0" y="0" fill="rgba(255, 255, 255, 1)"></rect><path d="M 0,402 C 57.6,328.6 172.8,48.8 288,35 C 403.2,21.2 460.8,313.4 576,333 C 691.2,352.6 748.8,137.6 864,133 C 979.2,128.4 1036.8,304.4 1152,310 C 1267.2,315.6 1382.4,190.8 1440,161L1440 560L0 560z" fill="rgba(79, 132, 187, 1)"></path><path d="M 0,148 C 96,224.4 288,537.8 480,530 C 672,522.2 768,121.2 960,109 C 1152,96.8 1344,397 1440,469L1440 560L0 560z" fill="rgba(34, 171, 37, 1)"></path></g><defs><mask id="SvgjsMask1004"><rect width="1440" height="560" fill="#ffffff"></rect></mask></defs></svg>