<?xml version="1.0" standalone="no"?><!DOCTYPE svg PUBLIC "-//W3C//DTD SVG 1.1//EN" "http://www.w3.org/Graphics/SVG/1.1/DTD/svg11.dtd"><svg t="1719054338327" class="icon" viewBox="0 0 1024 1024" version="1.1" xmlns="http://www.w3.org/2000/svg" p-id="1584" xmlns:xlink="http://www.w3.org/1999/xlink" width="200" height="200"><path d="M244.864 512a267.477333 267.477333 0 0 1 14.122667-85.333333L100.778667 308.352a454.4 454.4 0 0 0 0 407.168l158.122666-118.528A266.794667 266.794667 0 0 1 244.949333 512" fill="#FBBC05" p-id="1585"></path><path d="M522.709333 240.384a275.498667 275.498667 0 0 1 173.056 60.586667l136.789334-133.717334A475.52 475.52 0 0 0 100.778667 308.394667l158.293333 118.314666a276.522667 276.522667 0 0 1 263.68-186.282666" fill="#EA4335" p-id="1586"></path><path d="M522.709333 783.616A276.608 276.608 0 0 1 258.944 597.333333l-158.208 118.272a469.717333 469.717333 0 0 0 421.973333 256 453.418667 453.418667 0 0 0 306.304-114.56l-150.229333-113.706666a295.509333 295.509333 0 0 1-156.117333 40.192" fill="#34A853" p-id="1587"></path><path d="M971.434667 512a374.570667 374.570667 0 0 0-10.709334-83.584H522.666667v177.621333h252.16a206.890667 206.890667 0 0 1-96 137.386667l150.186666 113.706667A452.48 452.48 0 0 0 971.477333 512" fill="#4285F4" p-id="1588"></path></svg>